<svg width="51" height="51" viewBox="0 0 51 51" fill="none" xmlns="http://www.w3.org/2000/svg">
<path d="M29.6263 31.6914H2.54297V12.9414H25.4596L29.6263 31.6914Z" fill="#FFE7C4"/>
<path d="M20.4391 45.4206L6.70996 31.6914L25.46 12.9414L39.1891 26.6706C39.9652 27.4512 40.4008 28.5072 40.4008 29.6081C40.4008 30.7089 39.9652 31.7649 39.1891 32.5456L26.3141 45.4206C25.5335 46.1966 24.4775 46.6322 23.3766 46.6322C22.2758 46.6322 21.2198 46.1966 20.4391 45.4206Z" fill="#FFE7C4"/>
<path d="M31.1688 9.3999C30.1788 9.00563 29.0755 9.00563 28.0855 9.3999L19.4604 12.9416C18.9658 13.1264 18.5152 13.4126 18.1375 13.7817C17.7598 14.1509 17.4634 14.5948 17.2673 15.0851C17.0712 15.5755 16.9796 16.1014 16.9985 16.6291C17.0174 17.1569 17.1464 17.6749 17.3771 18.1499C17.8318 19.123 18.6447 19.8829 19.6462 20.2711C20.6477 20.6593 21.7605 20.6457 22.7521 20.2332L29.6271 17.1082L39.1896 26.6707C39.9657 27.4514 40.4013 28.5074 40.4013 29.6082C40.4013 30.7091 39.9657 31.7651 39.1896 32.5457L35.8771 35.8582H48.3771V8.7749L40.0438 12.9416L31.1688 9.3999Z" fill="#FFC49A"/>
</svg>
