<svg width="51" height="51" viewBox="0 0 51 51" fill="none" xmlns="http://www.w3.org/2000/svg">
<path d="M25.5553 36.2557C34.7601 36.2557 42.222 28.7938 42.222 19.589C42.222 10.3843 34.7601 2.92236 25.5553 2.92236C16.3506 2.92236 8.88867 10.3843 8.88867 19.589C8.88867 28.7938 16.3506 36.2557 25.5553 36.2557Z" fill="#FFE457"/>
<path d="M31.8057 34.1724H19.3057V40.4224H31.8057V34.1724Z" fill="#FFE457"/>
<path d="M19.2627 40.4224V46.6724C19.2627 47.2249 19.4822 47.7549 19.8729 48.1455C20.2636 48.5361 20.7935 48.7557 21.346 48.7557H29.6794C30.2319 48.7557 30.7617 48.5361 31.1525 48.1455C31.5431 47.7549 31.7627 47.2249 31.7627 46.6724V40.4224H19.2627Z" fill="#A0A6AB"/>
</svg>
