<svg width="51" height="51" viewBox="0 0 51 51" fill="none" xmlns="http://www.w3.org/2000/svg">
<path d="M9.00977 13.3594V42.7553C9.06843 43.8201 9.53316 44.8219 10.3083 45.5544C11.0834 46.2869 12.11 46.6942 13.1764 46.6928H38.1765C39.2429 46.6942 40.2694 46.2869 41.0446 45.5544C41.8198 44.8219 42.2844 43.8201 42.3431 42.7553V13.3594H9.00977Z" fill="#E7ECEF"/>
<path d="M42.3431 9.19255C42.3431 8.08746 41.9042 7.02765 41.1227 6.24625C40.3412 5.46486 39.2815 5.02588 38.1765 5.02588H13.1764C12.0714 5.02588 11.0116 5.46486 10.2302 6.24625C9.44874 7.02765 9.00977 8.08746 9.00977 9.19255V13.3592H42.3431V9.19255Z" fill="#71E5A6"/>
<path d="M35.267 19.5889H16.1698C15.6904 19.5889 15.3018 20.0552 15.3018 20.6305V22.7139C15.3018 23.2891 15.6904 23.7555 16.1698 23.7555H35.267C35.7465 23.7555 36.1351 23.2891 36.1351 22.7139V20.6305C36.1351 20.0552 35.7465 19.5889 35.267 19.5889Z" fill="#C7CED5"/>
<path d="M35.267 26.8804H16.1698C15.6904 26.8804 15.3018 27.3468 15.3018 27.922V30.0054C15.3018 30.5806 15.6904 31.047 16.1698 31.047H35.267C35.7465 31.047 36.1351 30.5806 36.1351 30.0054V27.922C36.1351 27.3468 35.7465 26.8804 35.267 26.8804Z" fill="#C7CED5"/>
<path d="M35.267 34.1724H16.1698C15.6904 34.1724 15.3018 34.6388 15.3018 35.214V37.2974C15.3018 37.8726 15.6904 38.339 16.1698 38.339H35.267C35.7465 38.339 36.1351 37.8726 36.1351 37.2974V35.214C36.1351 34.6388 35.7465 34.1724 35.267 34.1724Z" fill="#C7CED5"/>
</svg>
