<svg width="51" height="51" viewBox="0 0 51 51" fill="none" xmlns="http://www.w3.org/2000/svg">
<path d="M8.4069 12.6328H16.7402V29.2995H8.4069C7.30184 29.2995 6.24209 28.8605 5.46069 28.0791C4.67928 27.2976 4.24023 26.2378 4.24023 25.1328V16.7995C4.24023 15.6944 4.67928 14.6346 5.46069 13.8532C6.24209 13.0718 7.30184 12.6328 8.4069 12.6328Z" fill="#5096FF"/>
<path d="M13.0941 29.2993H7.88574V43.8826H13.0941V29.2993Z" fill="#5096FF"/>
<path d="M39.6562 14.7163C41.3137 14.7163 42.9035 15.3748 44.0756 16.5469C45.2477 17.719 45.9062 19.3087 45.9062 20.9663C45.9062 22.6238 45.2477 24.2136 44.0756 25.3857C42.9035 26.5578 41.3137 27.2163 39.6562 27.2163V14.7163Z" fill="#5096FF"/>
<path d="M38.1777 39.0691L16.7402 29.3191V12.6523L38.1777 3.00649C38.3359 2.9333 38.5098 2.90097 38.6836 2.9124C38.8575 2.92384 39.0257 2.9787 39.1729 3.07199C39.32 3.16526 39.4415 3.29399 39.5261 3.44632C39.6107 3.59868 39.6557 3.76978 39.6569 3.94403V38.2149C39.6425 38.382 39.5879 38.5431 39.4979 38.6845C39.4079 38.826 39.2852 38.9437 39.14 39.0276C38.9948 39.1114 38.8315 39.1589 38.664 39.1662C38.4965 39.1733 38.3296 39.1401 38.1777 39.0691Z" fill="#CBDFFF"/>
</svg>
