<svg width="51" height="51" viewBox="0 0 51 51" fill="none" xmlns="http://www.w3.org/2000/svg">
<path d="M23.6646 43.5474V5.0057C23.6646 4.45316 23.8841 3.92322 24.2748 3.53253C24.6654 3.14182 25.1954 2.92236 25.7479 2.92236C26.3004 2.92236 26.8304 3.14182 27.221 3.53253C27.6116 3.92322 27.8312 4.45316 27.8312 5.0057V43.5474C27.8312 43.8236 27.7214 44.0886 27.5262 44.2838C27.3308 44.4792 27.0658 44.589 26.7896 44.589H24.7062C24.43 44.589 24.165 44.4792 23.9696 44.2838C23.7743 44.0886 23.6646 43.8236 23.6646 43.5474Z" fill="#737A83"/>
<path d="M44.4979 42.5054H6.99788C5.8473 42.5054 4.91455 43.4381 4.91455 44.5887C4.91455 45.7393 5.8473 46.672 6.99788 46.672H44.4979C45.6485 46.672 46.5812 45.7393 46.5812 44.5887C46.5812 43.4381 45.6485 42.5054 44.4979 42.5054Z" fill="#88BFFF"/>
<path d="M4.91455 27.9428V25.8594C4.91455 20.8866 6.89001 16.1174 10.4063 12.6011C13.9226 9.08481 18.6917 7.10938 23.6646 7.10938H27.8312C32.8039 7.10938 37.5733 9.08481 41.0896 12.6011C44.6058 16.1174 46.5812 20.8866 46.5812 25.8594V27.9428" fill="#F4868F"/>
<path d="M17.4146 27.9428C17.4146 16.4844 21.1437 7.10938 25.7479 7.10938C30.3521 7.10938 34.0812 16.3802 34.0812 27.9428" fill="white"/>
</svg>
