<svg width="51" height="51" viewBox="0 0 51 51" fill="none" xmlns="http://www.w3.org/2000/svg">
<path d="M8.06785 40.8564L12.0925 39.778L14.4996 32.6625L12.3428 24.6131L6.70047 19.6545L2.67578 20.7329L7.38416 30.2554L8.06785 40.8564Z" fill="#5096FF"/>
<path d="M20.8263 48.2218L28.8757 46.065L34.6238 27.2702L22.5497 30.5054L20.8263 48.2218Z" fill="#CBDFFF"/>
<path d="M42.5331 16.5444L8.32324 25.7109L10.4801 33.7603L44.6899 24.5938C45.7573 24.3078 46.6674 23.6095 47.2199 22.6524C47.7725 21.6953 47.9222 20.5581 47.6362 19.4907C47.3502 18.4232 46.6519 17.5131 45.6948 16.9607C44.7378 16.4081 43.6005 16.2584 42.5331 16.5444Z" fill="#5096FF"/>
<path d="M18.0914 5.81778L10.042 7.97461L20.3927 22.4558L32.4668 19.2205L18.0914 5.81778Z" fill="#CBDFFF"/>
</svg>
