<svg width="51" height="51" viewBox="0 0 51 51" fill="none" xmlns="http://www.w3.org/2000/svg">
<path d="M22.231 36.3542C29.9517 36.3542 36.2104 30.0957 36.2104 22.3751C36.2104 14.6547 29.9517 8.396 22.231 8.396C14.5106 8.396 8.25195 14.6547 8.25195 22.3751C8.25195 30.0957 14.5106 36.3542 22.231 36.3542Z" fill="#EFF7FF"/>
<path d="M22.2318 9.87484C25.547 9.87484 28.7264 11.1918 31.0705 13.536C33.4147 15.8802 34.7318 19.0596 34.7318 22.3748C34.7318 25.69 33.4147 28.8694 31.0705 31.2136C28.7264 33.558 25.547 34.8748 22.2318 34.8748C18.9166 34.8748 15.7371 33.558 13.3929 31.2136C11.0487 28.8694 9.73177 25.69 9.73177 22.3748C9.73177 19.0596 11.0487 15.8802 13.3929 13.536C15.7371 11.1918 18.9166 9.87484 22.2318 9.87484ZM22.2318 4.6665C17.5369 4.67202 13.0359 6.5395 9.71617 9.85925C6.3964 13.179 4.52896 17.68 4.52344 22.3748C4.52344 24.7003 4.98146 27.003 5.8714 29.1515C6.76131 31.3 8.06573 33.2521 9.71008 34.8965C11.3545 36.5409 13.3066 37.8453 15.4551 38.7353C17.6036 39.625 19.9063 40.0832 22.2318 40.0832C24.558 40.0859 26.862 39.6298 29.0118 38.7409C31.1614 37.8519 33.1147 36.5475 34.7595 34.9025C36.4045 33.2578 37.7089 31.3044 38.5978 29.1548C39.4868 27.005 39.9428 24.7011 39.9401 22.3748C39.9401 17.6783 38.0745 13.1741 34.7534 9.85315C31.4324 6.53219 26.9282 4.6665 22.2318 4.6665Z" fill="#737A83"/>
<path fill-rule="evenodd" clip-rule="evenodd" d="M34.7009 31.1392L45.9509 42.41L42.2646 46.0894L31.0146 34.8185L34.7009 31.1392Z" fill="#737A83"/>
</svg>
