<svg width="51" height="51" viewBox="0 0 51 51" fill="none" xmlns="http://www.w3.org/2000/svg">
<path fill-rule="evenodd" clip-rule="evenodd" d="M19.1667 10.9381C17.3701 12.7867 15.5609 15.7746 14.3166 19.4863L14.3098 19.5064C12.195 25.6481 12.2161 30.0887 12.9815 33.2199C13.1317 33.0177 13.2813 32.8124 13.4302 32.6047C16.5568 28.2427 19.1429 23.0304 20.7142 18.3548C22.3674 13.2979 22.3435 10.6222 22.1166 9.38507C22.0918 9.24997 22.0647 9.1327 22.0372 9.03165C21.4204 9.15388 20.4528 9.61476 19.1667 10.9381ZM23.5756 6.58543L25.0052 4.40878L24.7412 4.23543L24.4435 4.13018C21.0394 2.92665 17.7325 4.94082 15.4317 7.30815C12.9811 9.82968 10.8175 13.5425 9.38178 17.8206C6.5452 26.0639 6.92645 32.2345 8.62122 36.7187C8.75408 37.0702 8.89428 37.4095 9.04064 37.7366C7.18605 39.501 5.31147 40.7795 3.51074 41.4362L5.2951 46.3293C7.62445 45.4799 9.83949 44.0195 11.8937 42.1889C12.9609 43.3983 14.005 44.2339 14.7647 44.7591L14.7714 44.7637C15.5384 45.2904 16.4765 45.5168 17.4066 45.3889C18.3355 45.2612 19.1739 44.7918 19.7698 44.0862L24.3991 38.5039L25.747 42.6429C25.9393 43.2414 26.2872 43.7837 26.762 44.2093C27.2412 44.6387 27.8308 44.9322 28.4702 45.052C29.1104 45.172 29.7697 45.112 30.3762 44.8804C30.982 44.6491 31.5079 44.2572 31.9024 43.7535L31.9216 43.7289L35.5483 38.8612L36.7306 42.7229L36.7379 42.7464C36.9291 43.3504 37.2787 43.8979 37.757 44.3266C38.2362 44.756 38.8258 45.0495 39.4652 45.1693C40.1054 45.2893 40.7647 45.2291 41.3712 44.9977C41.977 44.7662 42.5029 44.3745 42.8974 43.8706L42.9179 43.8445L48.1604 36.7852L43.9789 33.6799L40.7429 38.0374L39.5627 34.1824C39.3808 33.566 39.0337 33.0043 38.5508 32.5645C38.0593 32.1166 37.4477 31.8139 36.7843 31.6991C36.1202 31.5843 35.4389 31.6639 34.8212 31.9258C34.2208 32.1802 33.7091 32.5939 33.3354 33.1139L29.7072 37.9835L28.4195 34.0304C28.2364 33.4354 27.8983 32.8931 27.4327 32.4647C26.9527 32.0231 26.3572 31.7212 25.7104 31.5983C25.0631 31.4752 24.3947 31.5374 23.7814 31.7772C23.1937 32.007 22.6847 32.3887 22.3008 32.8749L16.6867 39.6449C16.3201 39.312 15.9207 38.9041 15.5191 38.4135C16.2663 37.5197 16.9822 36.5895 17.6635 35.6389C21.1089 30.832 23.9272 25.1477 25.6547 20.0032L25.6612 19.9839C27.4637 14.4744 27.6822 10.8583 27.2393 8.44501C27.0145 7.2204 26.6185 6.30397 26.1747 5.63138C25.9547 5.29809 25.7308 5.03638 25.5252 4.83451C25.4229 4.73399 25.326 4.64938 25.2381 4.57886C25.1941 4.54363 25.1524 4.51201 25.1135 4.48372C25.0941 4.46959 25.0754 4.4563 25.0572 4.44382L25.0306 4.4257L25.0179 4.41709L25.0114 4.4129C25.0114 4.4129 25.0052 4.40878 23.5756 6.58543Z" fill="#6B758F"/>
</svg>
