<svg width="25" height="24" viewBox="0 0 25 24" fill="none" xmlns="http://www.w3.org/2000/svg">
<path d="M7.63818 9.75991C7.27556 9.3973 7.09425 8.96215 7.09424 8.45449C7.09425 7.94682 7.27556 7.51168 7.63818 7.14906C8.00079 6.78645 8.43594 6.60513 8.9436 6.60512C9.45127 6.60513 9.88641 6.78645 10.249 7.14906C10.6116 7.51168 10.793 7.94682 10.793 8.45449C10.793 8.96215 10.6116 9.3973 10.249 9.75991C9.88641 10.1225 9.45127 10.3038 8.9436 10.3039C8.43594 10.3038 8.00079 10.1225 7.63818 9.75991ZM5.59844 11.7996C6.38804 12.5893 7.30093 13.0561 8.33712 13.2003C9.3733 13.3444 10.2907 13.1849 11.0894 12.7216L13.1046 14.7368L13.2814 16.0722C13.2996 16.1592 13.3261 16.2406 13.361 16.3163C13.3959 16.392 13.4469 16.4634 13.514 16.5305C13.581 16.5975 13.6524 16.6485 13.7281 16.6834C13.8038 16.7184 13.8897 16.7403 13.9858 16.7494L15.6883 16.967L15.8855 18.4832C15.9063 18.5856 15.9394 18.6844 15.9847 18.7796C16.0301 18.8748 16.0922 18.95 16.171 19.0053C16.2499 19.0606 16.3347 19.106 16.4253 19.1413C16.516 19.1767 16.6125 19.193 16.715 19.1903L18.8213 19.1237C18.9419 19.1209 19.0468 19.0998 19.1361 19.0604C19.2254 19.021 19.3082 18.9632 19.3843 18.887C19.4605 18.8109 19.5169 18.7282 19.5536 18.6389C19.5903 18.5496 19.6087 18.446 19.6087 18.3281L19.6087 17.3409C19.6087 17.2176 19.5867 17.1077 19.5427 17.0112C19.4988 16.9146 19.4387 16.8283 19.3626 16.7521L13.2107 10.6003C13.6658 9.81521 13.8261 8.90391 13.6914 7.86637C13.5568 6.82882 13.0892 5.9098 12.2888 5.10932C11.346 4.16651 10.2309 3.6951 8.9436 3.69509C7.6563 3.6951 6.54125 4.16651 5.59844 5.10932C4.65563 6.05213 4.18422 7.16719 4.18421 8.45449C4.18422 9.74179 4.65563 10.8568 5.59844 11.7996Z" fill="#9FA8B3"/>
</svg>
