<svg width="25" height="25" viewBox="0 0 25 25" fill="none" xmlns="http://www.w3.org/2000/svg">
<path d="M6.1748 9.78027C7.23567 9.78027 8.25307 10.2017 9.00321 10.9519C9.75337 11.702 10.1748 12.7194 10.1748 13.7803V18.7803C10.1748 19.0455 10.0694 19.2999 9.88192 19.4874C9.69438 19.6749 9.44002 19.7803 9.1748 19.7803H3.1748C2.90958 19.7803 2.65523 19.6749 2.46769 19.4874C2.28016 19.2999 2.1748 19.0455 2.1748 18.7803V13.7803C2.1748 12.7194 2.59622 11.702 3.34637 10.9519C4.09652 10.2017 5.11393 9.78027 6.1748 9.78027Z" fill="#C7CED5"/>
<path d="M6.1748 8.78027C7.55551 8.78027 8.6748 7.66098 8.6748 6.28027C8.6748 4.89956 7.55551 3.78027 6.1748 3.78027C4.79409 3.78027 3.6748 4.89956 3.6748 6.28027C3.6748 7.66098 4.79409 8.78027 6.1748 8.78027Z" fill="#C7CED5"/>
<path d="M21.1748 19.7803H15.1748C14.9096 19.7803 14.6552 19.6749 14.4677 19.4874C14.2801 19.2999 14.1748 19.0455 14.1748 18.7803V13.7803C14.1748 12.7194 14.5962 11.702 15.3464 10.9519C16.0965 10.2017 17.1139 9.78027 18.1748 9.78027C19.2357 9.78027 20.2531 10.2017 21.0032 10.9519C21.7534 11.702 22.1748 12.7194 22.1748 13.7803V18.7803C22.1748 19.0455 22.0694 19.2999 21.8819 19.4874C21.6944 19.6749 21.44 19.7803 21.1748 19.7803Z" fill="#C7CED5"/>
<path d="M18.1748 8.78027C19.5555 8.78027 20.6748 7.66098 20.6748 6.28027C20.6748 4.89956 19.5555 3.78027 18.1748 3.78027C16.7941 3.78027 15.6748 4.89956 15.6748 6.28027C15.6748 7.66098 16.7941 8.78027 18.1748 8.78027Z" fill="#C7CED5"/>
<path d="M11.2949 12.7803H13.0449C14.1058 12.7803 15.1232 13.2017 15.8733 13.9519C16.6235 14.702 17.0449 15.7194 17.0449 16.7803V21.7803C17.0449 22.0455 16.9396 22.2999 16.752 22.4874C16.5645 22.6749 16.3101 22.7803 16.0449 22.7803H8.29492C8.0297 22.7803 7.77535 22.6749 7.58781 22.4874C7.40027 22.2999 7.29492 22.0455 7.29492 21.7803V16.7803C7.29492 15.7194 7.71634 14.702 8.46649 13.9519C9.21663 13.2017 10.2341 12.7803 11.2949 12.7803Z" fill="#6B758F"/>
<path d="M12.1748 11.7803C13.5555 11.7803 14.6748 10.661 14.6748 9.28027C14.6748 7.89956 13.5555 6.78027 12.1748 6.78027C10.7941 6.78027 9.6748 7.89956 9.6748 9.28027C9.6748 10.661 10.7941 11.7803 12.1748 11.7803Z" fill="#6B758F"/>
</svg>
