<svg width="25" height="25" viewBox="0 0 25 25" fill="none" xmlns="http://www.w3.org/2000/svg">
<path d="M10.1748 10.7803H14.1748C15.5009 10.7803 16.7727 11.3071 17.7103 12.2447C18.648 13.1824 19.1748 14.4542 19.1748 15.7803V21.7803C19.1748 22.3107 18.9641 22.8194 18.589 23.1945C18.2139 23.5696 17.7052 23.7803 17.1748 23.7803H7.1748C6.64437 23.7803 6.13566 23.5696 5.76059 23.1945C5.38551 22.8194 5.1748 22.3107 5.1748 21.7803V15.7803C5.1748 14.4542 5.70158 13.1824 6.63927 12.2447C7.57695 11.3071 8.84872 10.7803 10.1748 10.7803Z" fill="#6B758F"/>
<path d="M12.1748 9.78027C14.3839 9.78027 16.1748 7.98941 16.1748 5.78027C16.1748 3.57113 14.3839 1.78027 12.1748 1.78027C9.96566 1.78027 8.1748 3.57113 8.1748 5.78027C8.1748 7.98941 9.96566 9.78027 12.1748 9.78027Z" fill="#6B758F"/>
</svg>
