<svg width="36" height="36" viewBox="0 0 36 36" fill="none" xmlns="http://www.w3.org/2000/svg">
<rect width="36" height="36" rx="13" fill="#F5F7FD"/>
<path d="M20.5 16.334H23C23.884 16.334 24.7319 16.6852 25.357 17.3103C25.9821 17.9354 26.3333 18.7832 26.3333 19.6673V24.6673C26.3333 24.8883 26.2455 25.1003 26.0892 25.2566C25.933 25.4128 25.721 25.5007 25.5 25.5007H18C17.779 25.5007 17.567 25.4128 17.4107 25.2566C17.2545 25.1003 17.1666 24.8883 17.1666 24.6673V19.6673C17.1666 18.7832 17.5178 17.9354 18.143 17.3103C18.768 16.6852 19.6159 16.334 20.5 16.334Z" fill="#C7CED5"/>
<path d="M13 16.334H15.5C16.384 16.334 17.2319 16.6852 17.857 17.3103C18.4821 17.9354 18.8333 18.7832 18.8333 19.6673V24.6673C18.8333 24.8883 18.7455 25.1003 18.5892 25.2566C18.433 25.4128 18.221 25.5007 18 25.5007H10.5C10.2789 25.5007 10.067 25.4128 9.9107 25.2566C9.75443 25.1003 9.66663 24.8883 9.66663 24.6673V19.6673C9.66663 18.7832 10.0178 17.9354 10.6429 17.3103C11.2681 16.6852 12.1159 16.334 13 16.334Z" fill="#6B758F"/>
<path d="M14.25 15.5C15.6307 15.5 16.75 14.3807 16.75 13C16.75 11.6193 15.6307 10.5 14.25 10.5C12.8693 10.5 11.75 11.6193 11.75 13C11.75 14.3807 12.8693 15.5 14.25 15.5Z" fill="#6B758F"/>
<path d="M21.75 15.5C23.1307 15.5 24.25 14.3807 24.25 13C24.25 11.6193 23.1307 10.5 21.75 10.5C20.3692 10.5 19.25 11.6193 19.25 13C19.25 14.3807 20.3692 15.5 21.75 15.5Z" fill="#C7CED5"/>
</svg>
