<svg width="36" height="37" viewBox="0 0 36 37" fill="none" xmlns="http://www.w3.org/2000/svg">
<rect x="0.00195312" y="0.0898438" width="36" height="36" rx="13" fill="#F5F7FD"/>
<path d="M11.3354 13.0898H14.6687V19.7565H11.3354C10.8933 19.7565 10.4694 19.5809 10.1569 19.2683C9.84432 18.9558 9.6687 18.5318 9.6687 18.0898V14.7565C9.6687 14.3145 9.84432 13.8906 10.1569 13.578C10.4694 13.2654 10.8933 13.0898 11.3354 13.0898Z" fill="#5096FF"/>
<path d="M13.2103 19.7559H11.127V25.5892H13.2103V19.7559Z" fill="#5096FF"/>
<path d="M23.8352 13.9238C24.4982 13.9238 25.1341 14.1872 25.603 14.6561C26.0718 15.1249 26.3352 15.7608 26.3352 16.4238C26.3352 17.0868 26.0718 17.7227 25.603 18.1916C25.1341 18.6604 24.4982 18.9238 23.8352 18.9238V13.9238Z" fill="#5096FF"/>
<path d="M23.2437 23.6647L14.6687 19.7647V13.098L23.2437 9.2397C23.307 9.21043 23.3765 9.1975 23.446 9.20207C23.5156 9.20665 23.5829 9.22859 23.6418 9.2659C23.7006 9.30321 23.7492 9.3547 23.783 9.41564C23.8169 9.47658 23.8349 9.54502 23.8354 9.61472V23.3231C23.8296 23.3899 23.8078 23.4543 23.7718 23.5109C23.7358 23.5675 23.6867 23.6146 23.6286 23.6482C23.5705 23.6817 23.5052 23.7007 23.4382 23.7036C23.3712 23.7064 23.3045 23.6932 23.2437 23.6647Z" fill="#CBDFFF"/>
</svg>
