<svg width="121" height="120" viewBox="0 0 121 120" fill="none" xmlns="http://www.w3.org/2000/svg">
<g clip-path="url(#clip0_1087_7319)">
<circle cx="60.1541" cy="60" r="60" fill="#F5F7FD"/>
<path d="M60.1541 88.9786C64.6696 88.9786 68.33 85.3183 68.33 80.8028C68.33 76.2873 64.6696 72.627 60.1541 72.627C55.6386 72.627 51.9783 76.2873 51.9783 80.8028C51.9783 85.3183 55.6386 88.9786 60.1541 88.9786Z" fill="#5C6983"/>
<path fill-rule="evenodd" clip-rule="evenodd" d="M60.1539 29.0234C63.1643 29.0234 65.6045 31.4637 65.6045 34.474V35.1782C74.2337 37.5179 80.5936 45.4143 80.5936 54.777V75.3525H81.9562C83.4614 75.3525 84.6815 76.5726 84.6815 78.0778C84.6815 79.583 83.4614 80.8031 81.9562 80.8031H38.3517C36.8466 80.8031 35.6265 79.583 35.6265 78.0778C35.6265 76.5726 36.8466 75.3525 38.3517 75.3525H39.7144V54.777C39.7144 45.4144 46.0742 37.5179 54.7034 35.1782V34.474C54.7034 31.4637 57.1436 29.0234 60.1539 29.0234Z" fill="white"/>
</g>
<defs>
<clipPath id="clip0_1087_7319">
<rect width="120" height="120" fill="white" transform="translate(0.154053)"/>
</clipPath>
</defs>
</svg>
