<svg width="170" height="51" viewBox="0 0 170 51" fill="none" xmlns="http://www.w3.org/2000/svg">
<g id="Group 8086">
<path id="Rectangle 3468060" d="M133.739 5.00638C133.739 2.42009 135.836 0.323486 138.422 0.323486C141.008 0.323486 143.105 2.4201 143.105 5.00639C143.105 7.59269 141.008 9.68932 138.422 9.68932H133.739V5.00638Z" fill="#119BFF"/>
<g id="Group 8085">
<g id="packit">
<path d="M54.6101 16.5891V12.8714H61.2448V39.5819H54.6101V35.4066C52.8371 38.3236 49.2909 40.2682 45.4588 40.2682C38.3094 40.2682 32.5898 34.4914 32.5898 26.198C32.5898 18.1334 38.0806 12.1851 45.6304 12.1851C49.2909 12.1851 52.8371 13.7865 54.6101 16.5891ZM46.8315 34.0911C50.9496 34.0911 54.4957 30.6593 54.4957 26.198C54.4957 21.6224 50.7208 18.3622 46.7743 18.3622C42.4847 18.3622 39.2245 21.9084 39.2245 26.198C39.2245 30.4877 42.4847 34.0911 46.8315 34.0911Z" fill="#119BFF"/>
<path d="M54.6101 16.5891V12.8714H61.2448V39.5819H54.6101V35.4066C52.8371 38.3236 49.2909 40.2682 45.4588 40.2682C38.3094 40.2682 32.5898 34.4914 32.5898 26.198C32.5898 18.1334 38.0806 12.1851 45.6304 12.1851C49.2909 12.1851 52.8371 13.7865 54.6101 16.5891ZM46.8315 34.0911C50.9496 34.0911 54.4957 30.6593 54.4957 26.198C54.4957 21.6224 50.7208 18.3622 46.7743 18.3622C42.4847 18.3622 39.2245 21.9084 39.2245 26.198C39.2245 30.4877 42.4847 34.0911 46.8315 34.0911Z" fill="#119BFF"/>
</g>
<g id="Group 8076">
<g id="Group 8074">
<g id="packit_2">
<path d="M80.3079 33.4811C83.3965 33.4811 85.6843 31.708 86.2563 29.077H93.9205C93.0625 35.6545 87.343 40.2874 80.3079 40.2874C72.129 40.2874 65.7803 34.1102 65.7803 25.9884C65.7803 17.8666 72.129 11.6322 80.3079 11.6322C87.343 11.6322 93.0625 16.3223 93.9205 22.8998H86.2563C85.6843 20.2688 83.3965 18.4385 80.3079 18.4385C76.0183 18.4385 73.2729 21.8131 73.2729 25.9884C73.2729 30.1637 76.0183 33.4811 80.3079 33.4811Z" fill="#119BFF"/>
<path d="M119.108 39.601L111.616 29.077L107.04 33.8814V39.601H99.5475V2.30591H107.04V24.0437L117.964 12.3186H127.459L116.763 23.6434L128.774 39.601H119.108Z" fill="#119BFF"/>
</g>
<g id="packit_3">
<path d="M15.6553 12.1848C22.6903 12.1848 28.8102 17.6756 28.8102 26.255C28.8102 34.7772 22.7475 40.268 15.7125 40.268C12.3379 40.268 8.62021 38.8953 6.78996 36.0355V50.8421H0.155273V12.8712H6.78996V16.4173C8.62021 13.5575 12.4523 12.1848 15.6553 12.1848ZM14.6257 34.0908C18.7438 34.0908 22.1756 30.7163 22.1756 26.255C22.1756 21.8509 18.7438 18.362 14.6257 18.362C10.5649 18.362 6.90435 21.5649 6.90435 26.255C6.90435 31.0023 10.7936 34.0908 14.6257 34.0908Z" fill="#119BFF"/>
<path d="M15.6553 12.1848C22.6903 12.1848 28.8102 17.6756 28.8102 26.255C28.8102 34.7772 22.7475 40.268 15.7125 40.268C12.3379 40.268 8.62021 38.8953 6.78996 36.0355V50.8421H0.155273V12.8712H6.78996V16.4173C8.62021 13.5575 12.4523 12.1848 15.6553 12.1848ZM14.6257 34.0908C18.7438 34.0908 22.1756 30.7163 22.1756 26.255C22.1756 21.8509 18.7438 18.362 14.6257 18.362C10.5649 18.362 6.90435 21.5649 6.90435 26.255C6.90435 31.0023 10.7936 34.0908 14.6257 34.0908Z" fill="#119BFF"/>
</g>
</g>
<g id="packit_4">
<path d="M133.739 12.319H141.232V39.6014H133.739V12.319Z" fill="#119BFF"/>
<path d="M168.808 32.2803L169.837 39.0866C167.321 40.059 165.262 40.2877 163.26 40.2877C155.939 40.2877 151.821 35.7121 151.821 28.7342V18.6105H145.987V12.319H151.821V2.42407H159.313V12.319H169.322V18.6105H159.313V28.7342C159.313 31.9371 161.315 33.367 164.118 33.367C165.834 33.367 167.435 32.8523 168.808 32.2803Z" fill="#119BFF"/>
</g>
</g>
</g>
</g>
</svg>
