<svg width="212" height="55" viewBox="0 0 212 55" fill="none" xmlns="http://www.w3.org/2000/svg">
<path d="M210.319 45.3641L211.527 53.3461C208.575 54.4864 206.161 54.7547 203.813 54.7547C195.227 54.7547 190.398 49.3887 190.398 41.2054V29.333H183.556V21.9547H190.398V10.3506H199.185V21.9547H210.923V29.333H199.185V41.2054C199.185 44.9617 201.532 46.6386 204.819 46.6386C206.831 46.6386 208.709 46.0349 210.319 45.3641Z" fill="#0AB6FF"/>
<path d="M173.554 15.7171C170.535 15.7171 168.188 13.5036 168.188 10.5522C168.188 7.53381 170.535 5.32031 173.554 5.32031C176.505 5.32031 178.92 7.53381 178.92 10.5522C178.92 13.5036 176.505 15.7171 173.554 15.7171ZM169.194 21.9551H177.981V53.9502H169.194V21.9551Z" fill="#0AB6FF"/>
<path d="M152.284 53.9504L143.497 41.6085L138.131 47.2429V53.9504H129.344V6.32666H138.131V35.7058L150.942 21.9553H162.077L149.533 35.2363L163.619 53.9504H152.284Z" fill="#0AB6FF"/>
<path d="M106.781 46.7733C110.403 46.7733 113.086 44.694 113.757 41.6085H122.745C121.739 49.3222 115.031 54.7553 106.781 54.7553C97.189 54.7553 89.7437 47.5112 89.7437 37.9864C89.7437 28.4616 97.189 21.1504 106.781 21.1504C115.031 21.1504 121.739 26.6506 122.745 34.3643H113.757C113.086 31.2788 110.403 29.1324 106.781 29.1324C101.75 29.1324 98.5305 33.0899 98.5305 37.9864C98.5305 42.8829 101.75 46.7733 106.781 46.7733Z" fill="#0AB6FF"/>
<path d="M74.6777 21.9553H83.4646V53.9504H74.6777V52.1394C72.1959 53.7492 69.0434 54.7553 65.4884 54.7553C56.6344 54.7553 49.5244 47.2429 49.5244 37.9864C49.5244 28.6629 56.6344 21.1504 65.4884 21.1504C69.0434 21.1504 72.1959 22.1565 74.6777 23.7663V21.9553ZM66.8299 46.7733C69.7141 46.7733 72.5984 45.9684 74.6777 43.0171V32.8886C72.5984 29.9373 69.7141 29.1324 66.8299 29.1324C61.7992 29.1324 58.3113 33.1569 58.3113 37.9864C58.3113 42.7488 61.7992 46.7733 66.8299 46.7733Z" fill="#0AB6FF"/>
<path fill-rule="evenodd" clip-rule="evenodd" d="M29.3841 10.2271C24.244 10.2271 20.0772 14.3939 20.0772 19.534V28.9676H29.3208C34.4817 28.9676 38.691 24.7548 38.691 19.5656C38.691 14.4114 34.5101 10.2271 29.3841 10.2271ZM20.0772 38.7093H29.3208C39.8901 38.7093 48.4327 30.1067 48.4327 19.5656C48.4327 9.05943 39.9184 0.485352 29.3841 0.485352C18.8638 0.485352 10.3355 9.01373 10.3355 19.534V28.9676H0.402832V38.7093H10.3355V53.9646H20.0772V38.7093Z" fill="#02B2FF"/>
<rect x="10.3345" y="20.0615" width="9.74166" height="8.90863" fill="url(#paint0_linear_423_16026)"/>
<rect x="20.0757" y="47.6118" width="9.74166" height="8.90863" transform="rotate(180 20.0757 47.6118)" fill="url(#paint1_linear_423_16026)"/>
<defs>
<linearGradient id="paint0_linear_423_16026" x1="15.2053" y1="20.0615" x2="15.2053" y2="28.9702" gradientUnits="userSpaceOnUse">
<stop stop-color="#02B2FF"/>
<stop offset="1" stop-color="#0A94E1"/>
</linearGradient>
<linearGradient id="paint1_linear_423_16026" x1="24.9465" y1="47.6118" x2="24.9465" y2="56.5204" gradientUnits="userSpaceOnUse">
<stop stop-color="#02B2FF"/>
<stop offset="1" stop-color="#0A94E1"/>
</linearGradient>
</defs>
</svg>
