<svg width="19" height="19" viewBox="0 0 19 19" fill="none" xmlns="http://www.w3.org/2000/svg">
<g id="Frame 475239692">
<g id="Group">
<path id="Vector" fill-rule="evenodd" clip-rule="evenodd" d="M14.4307 6.56934H13.2345V8.36376H14.4307C14.9541 8.36376 15.3279 8.7376 15.3279 9.26097V14.6442C15.3279 15.1676 14.9541 15.5415 14.4307 15.5415H9.04755C8.52418 15.5415 8.15035 15.1676 8.15035 14.6442V13.5975H6.35596V14.6442C6.35596 16.1396 7.55222 17.3359 9.04755 17.3359H14.4307C15.9261 17.3359 17.1223 16.1396 17.1223 14.6442V9.26097C17.1223 7.76562 15.9261 6.56934 14.4307 6.56934Z" fill="white"/>
<path id="Vector_2" fill-rule="evenodd" clip-rule="evenodd" d="M3.81366 3.13036C3.29029 3.13036 2.91646 3.5042 2.91646 4.02757V9.41084C2.91646 9.93422 3.29029 10.3081 3.81366 10.3081H9.19684C9.7202 10.3081 10.094 9.93422 10.094 9.41084V4.02757C10.094 3.5042 9.7202 3.13036 9.19684 3.13036H3.81366ZM9.19684 12.1025H3.81366C2.31833 12.1025 1.12207 10.9062 1.12207 9.41084V4.02757C1.12207 2.53222 2.31833 1.33594 3.81366 1.33594H9.19684C10.6922 1.33594 11.8884 2.53222 11.8884 4.02757V9.41084C11.8884 10.9062 10.6922 12.1025 9.19684 12.1025Z" fill="white"/>
</g>
</g>
</svg>
