<svg width="25" height="25" viewBox="0 0 25 25" fill="none" xmlns="http://www.w3.org/2000/svg">
<g id="edit_notifications_FILL0_wght300_GRAD0_opsz24 (1) 1">
<path id="Vector" d="M7.60629 13.4558C6.72639 12.5759 6.28632 11.5202 6.28607 10.2886C6.28581 9.05705 6.72545 8.0015 7.60498 7.12199C8.48452 6.24247 9.54053 5.80241 10.773 5.80181C12.0055 5.80118 13.0617 6.24081 13.9416 7.12068C14.6822 7.86126 15.1087 8.71536 15.2213 9.68297C15.3339 10.6506 15.1687 11.5494 14.7257 12.3793L19.7009 17.3544C19.9568 17.6102 20.0847 17.9203 20.0847 18.2847C20.0847 18.6491 19.9568 18.9592 19.7009 19.215C19.4255 19.4904 19.1065 19.6193 18.744 19.6015C18.3815 19.5838 18.0802 19.455 17.8402 19.215L17.519 18.8938L16.3228 20.0899C16.067 20.3458 15.7569 20.4737 15.3925 20.4737C15.0281 20.4737 14.718 20.3458 14.4622 20.09C14.2063 19.8341 14.0784 19.524 14.0784 19.1596C14.0784 18.7952 14.2063 18.4851 14.4622 18.2293L15.6583 17.0331L12.865 14.2399C12.0351 14.6829 11.1363 14.8481 10.1686 14.7355C9.20101 14.623 8.34689 14.1964 7.60629 13.4558ZM9.84359 11.2186C10.0994 11.4744 10.4095 11.6023 10.7739 11.6023C11.1383 11.6023 11.4484 11.4744 11.7043 11.2186C11.9601 10.9627 12.088 10.6526 12.088 10.2882C12.088 9.92386 11.9601 9.61376 11.7043 9.35792C11.4484 9.10209 11.1383 8.97417 10.7739 8.97416C10.4095 8.97417 10.0994 9.10209 9.84359 9.35792C9.58775 9.61376 9.45982 9.92386 9.45981 10.2882C9.45982 10.6526 9.58775 10.9627 9.84359 11.2186Z" fill="#5C6983"/>
</g>
</svg>
