<svg width="25" height="25" viewBox="0 0 25 25" fill="none" xmlns="http://www.w3.org/2000/svg">
<g id="Frame 475239806">
<path id="Vector" fill-rule="evenodd" clip-rule="evenodd" d="M7.18278 14.4807C6.96386 14.4806 6.74709 14.4374 6.54485 14.3536C6.34261 14.2698 6.15886 14.1469 6.0041 13.9921C5.84933 13.8372 5.72658 13.6534 5.64285 13.4511C5.55912 13.2489 5.51606 13.0321 5.51611 12.8132C5.51617 12.5942 5.55934 12.3775 5.64317 12.1752C5.727 11.973 5.84984 11.7892 6.00469 11.6345C6.15953 11.4797 6.34334 11.357 6.54562 11.2732C6.7479 11.1895 6.96469 11.1464 7.18361 11.1465C7.62575 11.1466 8.04974 11.3223 8.3623 11.6351C8.67486 11.9478 8.85039 12.3718 8.85028 12.814C8.85017 13.2561 8.67442 13.6801 8.36171 13.9927C8.04899 14.3052 7.62492 14.4808 7.18278 14.4807ZM12.8253 14.4807C12.3833 14.4807 11.9593 14.3051 11.6468 13.9925C11.3342 13.6799 11.1586 13.256 11.1586 12.814C11.1586 12.372 11.3342 11.948 11.6468 11.6355C11.9593 11.3229 12.3833 11.1473 12.8253 11.1473C13.2673 11.1473 13.6912 11.3229 14.0038 11.6355C14.3164 11.948 14.4919 12.372 14.4919 12.814C14.4919 13.256 14.3164 13.6799 14.0038 13.9925C13.6912 14.3051 13.2673 14.4807 12.8253 14.4807ZM18.4669 14.4807C18.248 14.4806 18.0313 14.4374 17.829 14.3536C17.6268 14.2698 17.443 14.1469 17.2883 13.9921C17.1335 13.8372 17.0107 13.6534 16.927 13.4511C16.8433 13.2489 16.8002 13.0321 16.8003 12.8132C16.8003 12.5942 16.8435 12.3775 16.9273 12.1752C17.0112 11.973 17.134 11.7892 17.2889 11.6345C17.4437 11.4797 17.6275 11.357 17.8298 11.2732C18.0321 11.1895 18.2489 11.1464 18.4678 11.1465C18.9099 11.1466 19.3339 11.3223 19.6465 11.6351C19.959 11.9478 20.1346 12.3718 20.1344 12.814C20.1343 13.2561 19.9586 13.6801 19.6459 13.9927C19.3332 14.3052 18.9091 14.4808 18.4669 14.4807Z" fill="#455163"/>
</g>
</svg>
