<svg width="25" height="24" viewBox="0 0 25 24" fill="none" xmlns="http://www.w3.org/2000/svg">
<g id="navigate_next_FILL0_wght400_GRAD0_opsz24 1">
<path id="Vector" d="M13.1174 11.9998L9.21738 8.0998C9.03405 7.91647 8.94238 7.68314 8.94238 7.3998C8.94238 7.11647 9.03405 6.88314 9.21738 6.6998C9.40072 6.51647 9.63405 6.4248 9.91738 6.4248C10.2007 6.4248 10.434 6.51647 10.6174 6.6998L15.2174 11.2998C15.3174 11.3998 15.3882 11.5081 15.4299 11.6248C15.4715 11.7415 15.4924 11.8665 15.4924 11.9998C15.4924 12.1331 15.4715 12.2581 15.4299 12.3748C15.3882 12.4915 15.3174 12.5998 15.2174 12.6998L10.6174 17.2998C10.434 17.4831 10.2007 17.5748 9.91738 17.5748C9.63405 17.5748 9.40072 17.4831 9.21738 17.2998C9.03405 17.1165 8.94238 16.8831 8.94238 16.5998C8.94238 16.3165 9.03405 16.0831 9.21738 15.8998L13.1174 11.9998Z" fill="#9FA8B3"/>
</g>
</svg>
