<svg width="81" height="83" viewBox="0 0 81 83" fill="none" xmlns="http://www.w3.org/2000/svg">
<rect x="0.397461" y="0.199219" width="80" height="80.0002" rx="40" fill="#E9ECF0"/>
<mask id="mask0_22_10852" style="mask-type:alpha" maskUnits="userSpaceOnUse" x="0" y="0" width="81" height="81">
<rect x="0.897461" y="0.699219" width="79" height="79.0002" rx="39.5" fill="#E9ECF0" stroke="black"/>
</mask>
<g mask="url(#mask0_22_10852)">
<path fill-rule="evenodd" clip-rule="evenodd" d="M53.6479 35.6419C53.6481 37.382 53.3055 39.1051 52.6398 40.7128C51.9741 42.3206 50.9982 43.7814 49.7679 45.012C48.5376 46.2425 47.0769 47.2187 45.4694 47.8848C43.8618 48.5509 42.1388 48.8938 40.3987 48.894C36.8844 48.8943 33.5139 47.4986 31.0287 45.0139C28.5435 42.5291 27.1471 39.1589 27.1467 35.6446C27.1466 33.9045 27.4891 32.1814 28.1549 30.5737C28.8206 28.966 29.7965 27.5051 31.0268 26.2746C33.5115 23.7893 36.8817 22.3929 40.396 22.3926C43.9103 22.3922 47.2807 23.7879 49.766 26.2727C52.2512 28.7574 53.6476 32.1276 53.6479 35.6419ZM40.3973 51.3476C21.3159 51.3476 13.8931 69.6218 13.8931 75.2712C13.8931 80.918 29.6936 82.4231 40.397 82.4231C51.1003 82.4231 66.9009 80.918 66.9009 75.2712C66.9009 69.6218 59.4787 51.3476 40.3973 51.3476Z" fill="#FAFCFF"/>
</g>
</svg>
