<svg width="25" height="25" viewBox="0 0 25 25" fill="none" xmlns="http://www.w3.org/2000/svg">
<g id="settings_FILL0_wght300_GRAD0_opsz24 1">
<path id="Vector" d="M10.8674 21.6986C10.6224 21.6986 10.41 21.617 10.2304 21.4536C10.0507 21.2903 9.94453 21.0861 9.91186 20.8411L9.61786 18.5626C9.40553 18.481 9.20544 18.383 9.01761 18.2686C8.82978 18.1543 8.64602 18.0318 8.46636 17.9011L6.33485 18.7831C6.10618 18.8811 5.87752 18.8934 5.64885 18.8199C5.42018 18.7464 5.24052 18.6035 5.10985 18.3911L3.29684 15.2306C3.16618 15.0183 3.12534 14.7896 3.17434 14.5446C3.22334 14.2996 3.34584 14.1036 3.54184 13.9566L5.37935 12.5601C5.36302 12.4458 5.35485 12.3356 5.35485 12.2294V11.5679C5.35485 11.4617 5.36302 11.3515 5.37935 11.2371L3.54184 9.84063C3.34584 9.69363 3.22334 9.49763 3.17434 9.25263C3.12534 9.00763 3.16618 8.77897 3.29684 8.56663L5.10985 5.40613C5.24052 5.1938 5.42018 5.05088 5.64885 4.97738C5.87752 4.90388 6.10618 4.91613 6.33485 5.01413L8.46636 5.89613C8.64602 5.76547 8.83386 5.64297 9.02986 5.52863C9.22586 5.4143 9.42186 5.3163 9.61786 5.23463L9.91186 2.95613C9.94453 2.71113 10.0507 2.50697 10.2304 2.34363C10.41 2.1803 10.6224 2.09863 10.8674 2.09863H14.5424C14.7874 2.09863 14.9997 2.1803 15.1794 2.34363C15.359 2.50697 15.4652 2.71113 15.4979 2.95613L15.7919 5.23463C16.0042 5.3163 16.2043 5.4143 16.3921 5.52863C16.58 5.64297 16.7637 5.76547 16.9434 5.89613L19.0749 5.01413C19.3036 4.91613 19.5322 4.90388 19.7609 4.97738C19.9896 5.05088 20.1692 5.1938 20.2999 5.40613L22.1129 8.56663C22.2436 8.77897 22.2844 9.00763 22.2354 9.25263C22.1864 9.49763 22.0639 9.69363 21.8679 9.84063L20.0304 11.2371C20.0467 11.3515 20.0549 11.4617 20.0549 11.5679V12.2294C20.0549 12.3356 20.0386 12.4458 20.0059 12.5601L21.8434 13.9566C22.0394 14.1036 22.1619 14.2996 22.2109 14.5446C22.2599 14.7896 22.2191 15.0183 22.0884 15.2306L20.2754 18.3666C20.1447 18.579 19.961 18.726 19.7241 18.8076C19.4873 18.8893 19.2546 18.8811 19.0259 18.7831L16.9434 17.9011C16.7637 18.0318 16.5759 18.1543 16.3799 18.2686C16.1839 18.383 15.9879 18.481 15.7919 18.5626L15.4979 20.8411C15.4652 21.0861 15.359 21.2903 15.1794 21.4536C14.9997 21.617 14.7874 21.6986 14.5424 21.6986H10.8674ZM11.7249 19.7386H13.6604L14.0034 17.1416C14.5097 17.011 14.9793 16.819 15.4121 16.5659C15.845 16.3127 16.241 16.0065 16.6004 15.6471L19.0259 16.6516L19.9814 14.9856L17.8744 13.3931C17.9561 13.1645 18.0132 12.9235 18.0459 12.6704C18.0786 12.4172 18.0949 12.16 18.0949 11.8986C18.0949 11.6373 18.0786 11.3801 18.0459 11.1269C18.0132 10.8737 17.9561 10.6328 17.8744 10.4041L19.9814 8.81163L19.0259 7.14563L16.6004 8.17463C16.241 7.79897 15.845 7.48455 15.4121 7.23138C14.9793 6.97822 14.5097 6.7863 14.0034 6.65563L13.6849 4.05863H11.7494L11.4064 6.65563C10.9 6.7863 10.4304 6.97822 9.99761 7.23138C9.56478 7.48455 9.16869 7.7908 8.80936 8.15013L6.38385 7.14563L5.42835 8.81163L7.53536 10.3796C7.45369 10.6246 7.39652 10.8696 7.36385 11.1146C7.33119 11.3596 7.31485 11.621 7.31485 11.8986C7.31485 12.16 7.33119 12.4131 7.36385 12.6581C7.39652 12.9031 7.45369 13.1481 7.53536 13.3931L5.42835 14.9856L6.38385 16.6516L8.80936 15.6226C9.16869 15.9983 9.56478 16.3127 9.99761 16.5659C10.4304 16.819 10.9 17.011 11.4064 17.1416L11.7249 19.7386Z" fill="#455163"/>
<path id="Ellipse 1553" d="M15.3305 11.8979C15.3305 13.3479 14.1551 14.5234 12.705 14.5234C11.255 14.5234 10.0796 13.3479 10.0796 11.8979C10.0796 10.4479 11.255 9.27246 12.705 9.27246C14.1551 9.27246 15.3305 10.4479 15.3305 11.8979Z" stroke="#455163" stroke-width="1.5"/>
</g>
</svg>
