<svg width="37" height="37" viewBox="0 0 37 37" fill="none" xmlns="http://www.w3.org/2000/svg">
<g id="Frame 475239814">
<path id="Vector" fill-rule="evenodd" clip-rule="evenodd" d="M29.41 16.5542H20.4738V7.61787C20.4738 7.21158 20.3124 6.82192 20.0251 6.53463C19.7378 6.24734 19.3482 6.08594 18.9419 6.08594C18.5356 6.08594 18.146 6.24734 17.8587 6.53463C17.5714 6.82192 17.41 7.21158 17.41 7.61787V16.5542H8.47381C8.06752 16.5542 7.67787 16.7156 7.39058 17.0029C7.10329 17.2901 6.94189 17.6798 6.94189 18.0861C6.94189 18.4924 7.10329 18.882 7.39058 19.1693C7.67787 19.4566 8.06752 19.618 8.47381 19.618H17.41V28.5543C17.41 28.9606 17.5714 29.3503 17.8587 29.6376C18.146 29.9248 18.5356 30.0862 18.9419 30.0862C19.3482 30.0862 19.7378 29.9248 20.0251 29.6376C20.3124 29.3503 20.4738 28.9606 20.4738 28.5543V19.618H29.41C29.8163 19.618 30.2059 19.4566 30.4932 19.1693C30.7805 18.882 30.9419 18.4924 30.9419 18.0861C30.9419 17.6798 30.7805 17.2901 30.4932 17.0029C30.2059 16.7156 29.8163 16.5542 29.41 16.5542Z" fill="white"/>
</g>
</svg>
