<svg width="36" height="36" viewBox="0 0 36 36" fill="none" xmlns="http://www.w3.org/2000/svg">
<circle cx="17.6543" cy="17.6006" r="17.5" fill="#F5F7FD"/>
<path d="M17.4045 16.9101V19.1601C17.4045 19.3726 17.4764 19.5507 17.6202 19.6945C17.764 19.8382 17.9422 19.9101 18.1548 19.9101C18.3674 19.9101 18.5455 19.8382 18.6891 19.6945C18.8327 19.5507 18.9045 19.3726 18.9045 19.1601V16.9101H21.1545C21.367 16.9101 21.5451 16.8382 21.6889 16.6944C21.8326 16.5506 21.9045 16.3724 21.9045 16.1598C21.9045 15.9472 21.8326 15.7691 21.6889 15.6255C21.5451 15.4819 21.367 15.4102 21.1545 15.4102H18.9045V13.1601C18.9045 12.9476 18.8326 12.7695 18.6888 12.6258C18.545 12.482 18.3668 12.4102 18.1542 12.4102C17.9416 12.4102 17.7635 12.482 17.6199 12.6258C17.4763 12.7695 17.4045 12.9476 17.4045 13.1601V15.4102H15.1545C14.942 15.4102 14.7639 15.4821 14.6201 15.6259C14.4764 15.7697 14.4045 15.9479 14.4045 16.1605C14.4045 16.3731 14.4764 16.5511 14.6201 16.6947C14.7639 16.8383 14.942 16.9101 15.1545 16.9101H17.4045ZM18.1545 27.1005C17.9596 27.1005 17.7648 27.0668 17.5699 26.9995C17.375 26.9322 17.1987 26.828 17.041 26.687C16.1436 25.8601 15.3039 25.0085 14.5218 24.1323C13.7398 23.256 13.06 22.38 12.4824 21.5044C11.9049 20.6287 11.4478 19.7608 11.1113 18.9005C10.7747 18.0403 10.6064 17.2095 10.6064 16.4082C10.6064 14.1005 11.3529 12.2323 12.8459 10.8034C14.3388 9.37458 16.1083 8.66016 18.1545 8.66016C20.2006 8.66016 21.9702 9.37458 23.4631 10.8034C24.9561 12.2323 25.7025 14.1005 25.7025 16.4082C25.7025 17.2095 25.5343 18.0387 25.1977 18.8957C24.8612 19.7528 24.4057 20.6207 23.8314 21.4996C23.257 22.3784 22.5788 23.2544 21.7968 24.1275C21.0147 25.0005 20.175 25.8505 19.2775 26.6774C19.1222 26.8184 18.9456 26.9242 18.7478 26.9947C18.55 27.0652 18.3523 27.1005 18.1545 27.1005Z" fill="#455163"/>
</svg>
