<svg width="25" height="25" viewBox="0 0 25 25" fill="none" xmlns="http://www.w3.org/2000/svg">
<g id="edit_note_FILL0_wght300_GRAD0_opsz24 (1) 1">
<path id="Vector" d="M8.14832 20.2185C7.73916 20.2185 7.39283 20.0767 7.10933 19.7932C6.82583 19.5097 6.68408 19.1634 6.68408 18.7542V6.29262C6.68408 5.88346 6.82583 5.53713 7.10933 5.25362C7.39283 4.97012 7.73916 4.82837 8.14832 4.82837H13.9756C14.1732 4.82837 14.3615 4.86628 14.5405 4.94209C14.7195 5.0179 14.8755 5.12226 15.0084 5.25518L18.4072 8.65405C18.5402 8.78699 18.6445 8.94296 18.7203 9.12197C18.7961 9.301 18.834 9.48928 18.834 9.68681V11.6745C18.5443 11.7264 18.2736 11.8215 18.0218 11.9597C17.77 12.098 17.5371 12.2739 17.3231 12.4876L12.9024 16.9006C12.7694 17.0335 12.663 17.1895 12.583 17.3685C12.5031 17.5475 12.4631 17.7358 12.4631 17.9333V20.2185H8.14832ZM14.2389 19.4863V18.3835C14.2389 18.2881 14.2565 18.1958 14.2918 18.1064C14.3271 18.017 14.3827 17.9344 14.4585 17.8585L18.6362 13.701C18.7369 13.6055 18.8457 13.5359 18.9625 13.4923C19.0792 13.4487 19.196 13.4269 19.3128 13.4269C19.4401 13.4269 19.5633 13.4508 19.6824 13.4985C19.8014 13.5463 19.9096 13.618 20.007 13.7135L20.7562 14.4705C20.8434 14.5713 20.9109 14.6803 20.9587 14.7976C21.0065 14.915 21.0304 15.0324 21.0304 15.1497C21.0304 15.267 21.0086 15.3865 20.965 15.508C20.9213 15.6295 20.8518 15.7406 20.7562 15.8413L16.5987 19.9988C16.5229 20.0746 16.4403 20.1302 16.3509 20.1655C16.2615 20.2008 16.1692 20.2185 16.0738 20.2185H14.971C14.7635 20.2185 14.5897 20.1483 14.4494 20.008C14.309 19.8676 14.2389 19.6938 14.2389 19.4863ZM19.3154 15.9317L20.0646 15.1497L19.3154 14.3926L18.5459 15.1622L19.3154 15.9317ZM14.7031 9.68837H17.6191L13.9741 6.04336V8.95936C13.9741 9.16592 14.0439 9.33905 14.1837 9.47878C14.3234 9.61851 14.4965 9.68837 14.7031 9.68837Z" fill="#5C6983"/>
</g>
</svg>
