<svg width="25" height="25" viewBox="0 0 25 25" fill="none" xmlns="http://www.w3.org/2000/svg">
<g id="edit_notifications_FILL0_wght300_GRAD0_opsz24 (1) 1">
<path id="Vector" d="M12.5497 21.2561C12.1019 21.2561 11.7191 21.0968 11.4012 20.7782C11.0833 20.4596 10.9244 20.0766 10.9244 19.6292H14.1782C14.1782 20.078 14.0187 20.4614 13.6998 20.7793C13.3809 21.0971 12.9976 21.2561 12.5497 21.2561ZM18.6263 18.7292H6.47627C6.28502 18.7292 6.12471 18.6645 5.99533 18.5351C5.86596 18.4056 5.80127 18.2452 5.80127 18.0539C5.80127 17.8626 5.86596 17.7023 5.99533 17.5731C6.12471 17.4439 6.28502 17.3792 6.47627 17.3792H7.4282V10.6639C7.4282 9.45349 7.80176 8.3833 8.54887 7.45331C9.29599 6.52332 10.2551 5.92852 11.4263 5.66891V5.10815C11.4263 4.79565 11.5356 4.53004 11.7541 4.31129C11.9727 4.09253 12.238 3.98315 12.5503 3.98315C12.8625 3.98315 13.1282 4.09253 13.3474 4.31129C13.5666 4.53004 13.6762 4.79565 13.6762 5.10815V5.66891C13.8759 5.71391 14.0674 5.76699 14.2509 5.82814C14.4343 5.8893 14.6126 5.96602 14.7857 6.05832L11.1701 9.65139C11.021 9.79968 10.9023 9.97494 10.8142 10.1772C10.7261 10.3794 10.682 10.5884 10.682 10.8041V13.6754C10.682 14.1228 10.8413 14.5058 11.1599 14.8244C11.4785 15.143 11.8615 15.3023 12.3089 15.3023H15.1803C15.3962 15.3023 15.6054 15.2602 15.8078 15.176C16.0102 15.0917 16.1853 14.9758 16.333 14.8281L17.6743 13.4729V17.3792H18.6263C18.8175 17.3792 18.9778 17.444 19.1072 17.5734C19.2366 17.7028 19.3013 17.8632 19.3013 18.0545C19.3013 18.2458 19.2366 18.4061 19.1072 18.5353C18.9778 18.6646 18.8175 18.7292 18.6263 18.7292ZM12.6551 12.5158V11.2904C12.6551 11.182 12.6747 11.0764 12.714 10.9737C12.7532 10.871 12.8149 10.7822 12.8992 10.7072L17.5411 6.08777C17.653 5.98162 17.7738 5.90431 17.9036 5.85584C18.0333 5.80738 18.1631 5.78314 18.2928 5.78314C18.4344 5.78314 18.5712 5.80969 18.7035 5.86277C18.8357 5.91584 18.9559 5.99545 19.0641 6.10161L19.8966 6.94276C19.9936 7.05468 20.0686 7.17583 20.1216 7.30621C20.1747 7.43658 20.2013 7.56697 20.2013 7.69737C20.2013 7.82775 20.1785 7.96043 20.1329 8.09541C20.0873 8.23041 20.0086 8.35388 19.8966 8.4658L15.2758 13.0866C15.2017 13.1607 15.1134 13.2196 15.0107 13.2635C14.908 13.3073 14.8024 13.3292 14.6939 13.3292H13.4686C13.2381 13.3292 13.0449 13.2513 12.889 13.0954C12.7331 12.9394 12.6551 12.7463 12.6551 12.5158ZM18.2957 8.5662L19.1282 7.69737L18.2957 6.85621L17.4407 7.7112L18.2957 8.5662Z" fill="#5C6983"/>
</g>
</svg>
