<svg width="25" height="25" viewBox="0 0 25 25" fill="none" xmlns="http://www.w3.org/2000/svg">
<g id="icon-home-mono">
<path id="Vector" fill-rule="evenodd" clip-rule="evenodd" d="M21.8386 8.29001L13.3916 1.57301C13.2149 1.43216 12.9956 1.35547 12.7696 1.35547C12.5436 1.35547 12.3243 1.43216 12.1476 1.57301L3.69958 8.29001C3.46413 8.47729 3.27396 8.71527 3.14324 8.98623C3.01252 9.2572 2.94462 9.55416 2.94458 9.85501V19.273C2.94458 19.9095 3.19744 20.52 3.64752 20.9701C4.09761 21.4202 4.70806 21.673 5.34458 21.673H10.7696V16.921C10.7696 16.6558 10.8749 16.4014 11.0625 16.2139C11.25 16.0264 11.5044 15.921 11.7696 15.921H13.7696C14.0348 15.921 14.2892 16.0264 14.4767 16.2139C14.6642 16.4014 14.7696 16.6558 14.7696 16.921V21.673H20.1936C20.8301 21.673 21.4405 21.4202 21.8906 20.9701C22.3407 20.52 22.5936 19.9095 22.5936 19.273V9.85601C22.5935 9.55516 22.5256 9.2582 22.3949 8.98723C22.2642 8.71627 22.074 8.47828 21.8386 8.29101" fill="#C4CAD0"/>
</g>
</svg>
