<svg width="36" height="36" viewBox="0 0 36 36" fill="none" xmlns="http://www.w3.org/2000/svg">
<circle cx="17.6543" cy="17.6006" r="17.5" fill="#F5F7FD"/>
<path d="M11.9535 17.9203C10.9785 16.9454 10.4909 15.7755 10.4906 14.4109C10.4903 13.0462 10.9775 11.8765 11.952 10.902C12.9266 9.9274 14.0967 9.43978 15.4624 9.43911C16.828 9.43842 17.9983 9.92556 18.9733 10.9005C19.7939 11.7211 20.2666 12.6676 20.3913 13.7398C20.5161 14.8119 20.333 15.8079 19.8421 16.7275L25.3549 22.2403C25.6384 22.5238 25.7802 22.8674 25.7802 23.2711C25.7802 23.6749 25.6384 24.0185 25.355 24.302C25.0498 24.6072 24.6963 24.7499 24.2946 24.7303C23.8929 24.7107 23.5591 24.5679 23.2932 24.302L22.9373 23.9461L21.6119 25.2715C21.3284 25.555 20.9847 25.6967 20.581 25.6967C20.1772 25.6967 19.8336 25.555 19.5501 25.2715C19.2666 24.988 19.1249 24.6444 19.1249 24.2406C19.1249 23.8369 19.2666 23.4932 19.5501 23.2098L20.8755 21.8843L17.7804 18.7892C16.8608 19.2801 15.8649 19.4632 14.7927 19.3384C13.7205 19.2136 12.7741 18.741 11.9535 17.9203ZM14.4325 15.4413C14.716 15.7248 15.0596 15.8665 15.4634 15.8665C15.8671 15.8665 16.2108 15.7248 16.4942 15.4413C16.7777 15.1578 16.9195 14.8142 16.9195 14.4104C16.9195 14.0067 16.7777 13.6631 16.4942 13.3796C16.2108 13.0961 15.8671 12.9543 15.4634 12.9543C15.0596 12.9543 14.716 13.0961 14.4325 13.3796C14.149 13.6631 14.0073 14.0067 14.0073 14.4104C14.0073 14.8142 14.149 15.1578 14.4325 15.4413Z" fill="#455163"/>
</svg>
