<svg width="31" height="31" viewBox="0 0 31 31" fill="none" xmlns="http://www.w3.org/2000/svg">
<rect x="0.749023" y="0.972656" width="30" height="30" rx="6" fill="#5C6983"/>
<path fill-rule="evenodd" clip-rule="evenodd" d="M21.8554 15.079H16.6426V9.86627C16.6426 9.62927 16.5485 9.40198 16.3809 9.23439C16.2133 9.0668 15.986 8.97266 15.749 8.97266C15.512 8.97266 15.2847 9.0668 15.1171 9.23439C14.9496 9.40198 14.8554 9.62927 14.8554 9.86627V15.079H9.64264C9.40564 15.079 9.17834 15.1732 9.01076 15.3408C8.84317 15.5083 8.74902 15.7356 8.74902 15.9726C8.74902 16.2096 8.84317 16.4369 9.01076 16.6045C9.17834 16.7721 9.40564 16.8663 9.64264 16.8663H14.8554V22.079C14.8554 22.316 14.9496 22.5433 15.1171 22.7109C15.2847 22.8785 15.512 22.9726 15.749 22.9726C15.986 22.9726 16.2133 22.8785 16.3809 22.7109C16.5485 22.5433 16.6426 22.316 16.6426 22.079V16.8663H21.8554C22.0924 16.8663 22.3197 16.7721 22.4873 16.6045C22.6549 16.4369 22.749 16.2096 22.749 15.9726C22.749 15.7356 22.6549 15.5083 22.4873 15.3408C22.3197 15.1732 22.0924 15.079 21.8554 15.079Z" fill="white"/>
</svg>
