<svg width="25" height="24" viewBox="0 0 25 24" fill="none" xmlns="http://www.w3.org/2000/svg">
<g id="icon-map-mono">
<g id="Group">
<path id="Vector" fill-rule="evenodd" clip-rule="evenodd" d="M23.2078 20.8474L19.7708 16.0374C19.4869 15.6433 19.0753 15.3595 18.6058 15.2344L18.5518 15.2994C17.6568 16.3594 16.5188 17.5494 14.9688 19.0474C14.4003 19.5974 13.6398 19.9041 12.8488 19.9024C12.0582 19.9046 11.298 19.5982 10.7298 19.0484C9.14784 17.5184 7.99184 16.3054 7.08984 15.2314C6.61621 15.3544 6.20053 15.6392 5.91484 16.0364L2.47784 20.8474C2.36576 21.0045 2.29911 21.1893 2.2852 21.3818C2.2713 21.5742 2.31067 21.7667 2.39901 21.9382C2.48735 22.1097 2.62124 22.2536 2.78597 22.354C2.9507 22.4544 3.13991 22.5075 3.33284 22.5074H22.3528C23.2068 22.5074 23.7028 21.5424 23.2068 20.8474" fill="#D0D9E3"/>
<path id="Vector_2" fill-rule="evenodd" clip-rule="evenodd" d="M12.8479 6.30952C13.1142 6.30343 13.3791 6.35061 13.6269 6.4483C13.8748 6.54598 14.1006 6.6922 14.2912 6.87836C14.4817 7.06453 14.6332 7.28689 14.7366 7.53239C14.8401 7.77789 14.8934 8.04159 14.8936 8.308C14.8937 8.5744 14.8406 8.83815 14.7374 9.08376C14.6342 9.32936 14.483 9.55187 14.2926 9.73823C14.1022 9.92459 13.8765 10.071 13.6288 10.169C13.381 10.2669 13.1162 10.3143 12.8499 10.3085C12.3194 10.3087 11.8107 10.0981 11.4355 9.72309C11.0603 9.34811 10.8495 8.83945 10.8494 8.30902C10.8492 7.77859 11.0598 7.26982 11.4348 6.89466C11.8098 6.51949 12.3184 6.30865 12.8489 6.30852M12.1209 17.6105C12.3172 17.7983 12.5784 17.903 12.8501 17.9028C13.1217 17.9026 13.3828 17.7975 13.5789 17.6095C18.1969 13.1475 19.6509 10.9095 19.6509 8.30952C19.6509 3.90552 15.4639 0.478519 10.8539 1.79152C7.94385 2.62152 6.04785 5.28352 6.04785 8.30952C6.04785 10.9115 7.50285 13.1485 12.1209 17.6095" fill="#D0D9E3"/>
</g>
</g>
</svg>
