<svg width="24" height="25" viewBox="0 0 24 25" fill="none" xmlns="http://www.w3.org/2000/svg">
<g id="notifications_FILL0_wght300_GRAD0_opsz24 1">
<path id="Vector" d="M5 19.125C4.71667 19.125 4.47917 19.0292 4.2875 18.8375C4.09583 18.6458 4 18.4083 4 18.125C4 17.8417 4.09583 17.6042 4.2875 17.4125C4.47917 17.2208 4.71667 17.125 5 17.125H6V10.125C6 8.74167 6.41667 7.5125 7.25 6.4375C8.08333 5.3625 9.16667 4.65833 10.5 4.325V3.625C10.5 3.20833 10.6458 2.85417 10.9375 2.5625C11.2292 2.27083 11.5833 2.125 12 2.125C12.4167 2.125 12.7708 2.27083 13.0625 2.5625C13.3542 2.85417 13.5 3.20833 13.5 3.625V4.325C14.8333 4.65833 15.9167 5.3625 16.75 6.4375C17.5833 7.5125 18 8.74167 18 10.125V17.125H19C19.2833 17.125 19.5208 17.2208 19.7125 17.4125C19.9042 17.6042 20 17.8417 20 18.125C20 18.4083 19.9042 18.6458 19.7125 18.8375C19.5208 19.0292 19.2833 19.125 19 19.125H5ZM12 22.125C11.45 22.125 10.9792 21.9292 10.5875 21.5375C10.1958 21.1458 10 20.675 10 20.125H14C14 20.675 13.8042 21.1458 13.4125 21.5375C13.0208 21.9292 12.55 22.125 12 22.125ZM8 17.125H16V10.125C16 9.025 15.6083 8.08333 14.825 7.3C14.0417 6.51667 13.1 6.125 12 6.125C10.9 6.125 9.95833 6.51667 9.175 7.3C8.39167 8.08333 8 9.025 8 10.125V17.125Z" fill="#455163"/>
</g>
</svg>
