<svg width="21" height="21" viewBox="0 0 21 21" fill="none" xmlns="http://www.w3.org/2000/svg">
<path fill-rule="evenodd" clip-rule="evenodd" d="M17.6823 9.23958H11.849V3.40625C11.849 3.14103 11.7436 2.88668 11.5561 2.69914C11.3685 2.51161 11.1142 2.40625 10.849 2.40625C10.5837 2.40625 10.3294 2.51161 10.1419 2.69914C9.95431 2.88668 9.84896 3.14103 9.84896 3.40625V9.23958H4.01562C3.75041 9.23958 3.49605 9.34494 3.30852 9.53248C3.12098 9.72001 3.01563 9.97437 3.01562 10.2396C3.01563 10.5048 3.12098 10.7592 3.30852 10.9467C3.49605 11.1342 3.75041 11.2396 4.01562 11.2396H9.84896V17.0729C9.84896 17.3381 9.95431 17.5925 10.1419 17.78C10.3294 17.9676 10.5837 18.0729 10.849 18.0729C11.1142 18.0729 11.3685 17.9676 11.5561 17.78C11.7436 17.5925 11.849 17.3381 11.849 17.0729V11.2396H17.6823C17.9475 11.2396 18.2019 11.1342 18.3894 10.9467C18.5769 10.7592 18.6823 10.5048 18.6823 10.2396C18.6823 9.97437 18.5769 9.72001 18.3894 9.53248C18.2019 9.34494 17.9475 9.23958 17.6823 9.23958Z" fill="#5C6983"/>
</svg>
