<svg width="25" height="24" viewBox="0 0 25 24" fill="none" xmlns="http://www.w3.org/2000/svg">
<g id="icon-user-mono">
<path id="Vector" fill-rule="evenodd" clip-rule="evenodd" d="M17.7348 6.65134C17.7349 7.29416 17.6083 7.9307 17.3624 8.52461C17.1165 9.11852 16.756 9.65818 16.3015 10.1128C15.847 10.5674 15.3074 10.928 14.7135 11.174C14.1197 11.4201 13.4831 11.5468 12.8403 11.5468C11.5421 11.547 10.297 11.0314 9.37889 10.1135C8.46081 9.19558 7.94496 7.95057 7.94483 6.65234C7.94476 6.00952 8.07131 5.37298 8.31725 4.77906C8.56318 4.18515 8.92369 3.64549 9.37819 3.1909C10.2961 2.27282 11.5411 1.75697 12.8393 1.75684C14.1376 1.7567 15.3827 2.2723 16.3008 3.19019C17.2188 4.10809 17.7347 5.3531 17.7348 6.65134ZM12.8398 13.0443C5.79083 13.0443 3.04883 17.5303 3.04883 19.6173C3.04883 21.7033 8.88583 22.2593 12.8398 22.2593C16.7938 22.2593 22.6308 21.7033 22.6308 19.6173C22.6308 17.5303 19.8888 13.0443 12.8398 13.0443Z" fill="#D0D9E3"/>
</g>
</svg>
