<svg width="25" height="25" viewBox="0 0 25 25" fill="none" xmlns="http://www.w3.org/2000/svg">
<g id="Icon / Apple" clip-path="url(#clip0_87_4079)">
<path id="Vector" d="M22.1538 18.8004C21.806 19.604 21.3943 20.3437 20.9173 21.0237C20.2671 21.9508 19.7347 22.5925 19.3244 22.9488C18.6883 23.5337 18.0069 23.8333 17.2771 23.8503C16.7533 23.8503 16.1215 23.7013 15.3861 23.3989C14.6483 23.0979 13.9702 22.9488 13.3502 22.9488C12.7 22.9488 12.0026 23.0979 11.2567 23.3989C10.5097 23.7013 9.90786 23.8589 9.44773 23.8745C8.74795 23.9043 8.05045 23.5962 7.35422 22.9488C6.90985 22.5612 6.35404 21.8968 5.68819 20.9556C4.9738 19.9504 4.38646 18.7848 3.92633 17.456C3.43355 16.0206 3.18652 14.6307 3.18652 13.2851C3.18652 11.7438 3.51959 10.4144 4.18671 9.30031C4.71101 8.40547 5.40851 7.69959 6.28149 7.1814C7.15447 6.6632 8.09773 6.39914 9.11353 6.38224C9.66934 6.38224 10.3982 6.55417 11.304 6.89206C12.2072 7.23109 12.7872 7.40301 13.0414 7.40301C13.2315 7.40301 13.8758 7.20198 14.968 6.8012C16.0008 6.42952 16.8725 6.27562 17.5866 6.33624C19.5217 6.49241 20.9755 7.25522 21.9423 8.6295C20.2117 9.6781 19.3556 11.1468 19.3726 13.0309C19.3883 14.4984 19.9206 15.7197 20.967 16.6893C21.4412 17.1394 21.9707 17.4872 22.5599 17.7342C22.4321 18.1048 22.2972 18.4597 22.1538 18.8004ZM17.7158 1.3366C17.7158 2.48686 17.2956 3.56085 16.458 4.55493C15.4471 5.7367 14.2245 6.41958 12.8986 6.31182C12.8817 6.17383 12.8719 6.02859 12.8719 5.87597C12.8719 4.77172 13.3526 3.58996 14.2063 2.6237C14.6325 2.13447 15.1746 1.72768 15.8319 1.40318C16.4878 1.08352 17.1082 0.906738 17.6917 0.876465C17.7087 1.03024 17.7158 1.18402 17.7158 1.33658V1.3366Z" fill="white"/>
</g>
<defs>
<clipPath id="clip0_87_4079">
<rect width="24" height="24" fill="white" transform="translate(0.873047 0.376465)"/>
</clipPath>
</defs>
</svg>
