<svg width="16" height="16" viewBox="0 0 16 16" fill="none" xmlns="http://www.w3.org/2000/svg">
<path d="M3.67405 9.41075L8.57405 14.3108C8.77405 14.5108 8.86988 14.7441 8.86155 15.0108C8.85321 15.2774 8.74905 15.5108 8.54905 15.7108C8.34905 15.8941 8.11571 15.9899 7.84905 15.9983C7.58238 16.0066 7.34905 15.9108 7.14905 15.7108L0.549048 9.11075C0.449048 9.01075 0.378215 8.90242 0.336548 8.78575C0.294881 8.66909 0.274048 8.54409 0.274048 8.41075C0.274048 8.27742 0.294881 8.15242 0.336548 8.03575C0.378215 7.91909 0.449048 7.81075 0.549048 7.71075L7.14905 1.11075C7.33238 0.927421 7.56155 0.835754 7.83655 0.835754C8.11155 0.835754 8.34905 0.927421 8.54905 1.11075C8.74905 1.31075 8.84905 1.54825 8.84905 1.82325C8.84905 2.09825 8.74905 2.33575 8.54905 2.53575L3.67405 7.41075H14.849C15.1324 7.41075 15.3699 7.50659 15.5615 7.69825C15.7532 7.88992 15.849 8.12742 15.849 8.41075C15.849 8.69409 15.7532 8.93159 15.5615 9.12325C15.3699 9.31492 15.1324 9.41075 14.849 9.41075H3.67405Z" fill="#1D222A"/>
</svg>
