<svg width="15" height="15" viewBox="0 0 15 15" fill="none" xmlns="http://www.w3.org/2000/svg">
<g clip-path="url(#clip0_87_4697)">
<path fill-rule="evenodd" clip-rule="evenodd" d="M10.0566 6.20977L6.79987 9.4671C6.69016 9.57607 6.5418 9.63722 6.38716 9.63722C6.23253 9.63722 6.08417 9.57607 5.97446 9.4671L3.98179 7.47443C3.92763 7.42028 3.88467 7.35598 3.85536 7.28522C3.82605 7.21445 3.81096 7.13861 3.81096 7.06202C3.81096 6.90733 3.87241 6.75898 3.98179 6.6496C4.09117 6.54022 4.23952 6.47877 4.39421 6.47877C4.54889 6.47877 4.69724 6.54022 4.80662 6.6496L6.38687 8.22985L9.23179 5.38493C9.28595 5.33077 9.35025 5.28781 9.42101 5.2585C9.49177 5.22919 9.56761 5.21411 9.64421 5.21411C9.7208 5.21411 9.79664 5.22919 9.8674 5.2585C9.93817 5.28781 10.0025 5.33077 10.0566 5.38493C10.1108 5.43909 10.1537 5.50339 10.1831 5.57415C10.2124 5.64492 10.2275 5.72076 10.2275 5.79735C10.2275 5.87394 10.2124 5.94979 10.1831 6.02055C10.1537 6.09131 10.1108 6.15561 10.0566 6.20977ZM7.01921 0.834351C3.47546 0.834351 0.602539 3.70727 0.602539 7.25102C0.602539 10.7948 3.47546 13.6677 7.01921 13.6677C10.563 13.6677 13.4359 10.7948 13.4359 7.25102C13.4359 3.70727 10.563 0.834351 7.01921 0.834351Z" fill="#05C983"/>
</g>
<defs>
<clipPath id="clip0_87_4697">
<rect width="14" height="14" fill="white" transform="translate(0.0195312 0.250977)"/>
</clipPath>
</defs>
</svg>
