<svg width="15" height="15" viewBox="0 0 15 15" fill="none" xmlns="http://www.w3.org/2000/svg">
<g clip-path="url(#clip0_87_4766)">
<path fill-rule="evenodd" clip-rule="evenodd" d="M7.01921 10.2365C6.83355 10.2365 6.65551 10.1628 6.52423 10.0315C6.39296 9.90022 6.31921 9.72217 6.31921 9.53652C6.31921 9.35087 6.39296 9.17282 6.52423 9.04154C6.65551 8.91027 6.83355 8.83652 7.01921 8.83652C7.20486 8.83652 7.3829 8.91027 7.51418 9.04154C7.64546 9.17282 7.71921 9.35087 7.71921 9.53652C7.71921 9.72217 7.64546 9.90022 7.51418 10.0315C7.3829 10.1628 7.20486 10.2365 7.01921 10.2365ZM6.43587 4.49943C6.43587 4.34472 6.49733 4.19635 6.60673 4.08696C6.71612 3.97756 6.8645 3.9161 7.01921 3.9161C7.17391 3.9161 7.32229 3.97756 7.43168 4.08696C7.54108 4.19635 7.60254 4.34472 7.60254 4.49943V7.4161C7.60254 7.57081 7.54108 7.71918 7.43168 7.82858C7.32229 7.93798 7.17391 7.99943 7.01921 7.99943C6.8645 7.99943 6.71612 7.93798 6.60673 7.82858C6.49733 7.71918 6.43587 7.57081 6.43587 7.4161V4.49943ZM7.01921 0.834351C3.47546 0.834351 0.602539 3.70727 0.602539 7.25102C0.602539 10.7954 3.47546 13.6677 7.01921 13.6677C10.563 13.6677 13.4359 10.7954 13.4359 7.25102C13.4359 3.70727 10.563 0.834351 7.01921 0.834351Z" fill="#FF4930"/>
</g>
<defs>
<clipPath id="clip0_87_4766">
<rect width="14" height="14" fill="white" transform="translate(0.0195312 0.250977)"/>
</clipPath>
</defs>
</svg>
