<svg width="25" height="25" viewBox="0 0 25 25" fill="none" xmlns="http://www.w3.org/2000/svg">
<path fill-rule="evenodd" clip-rule="evenodd" d="M13.9899 12.8571L19.6409 7.20605C19.7524 7.09463 19.8408 6.96233 19.9012 6.81672C19.9615 6.67111 19.9926 6.51503 19.9927 6.35741C19.9927 6.19978 19.9617 6.04368 19.9014 5.89804C19.8412 5.75239 19.7528 5.62004 19.6414 5.50855C19.5299 5.39706 19.3976 5.30861 19.252 5.24824C19.1064 5.18788 18.9503 5.15678 18.7927 5.15674C18.6351 5.15669 18.479 5.18769 18.3333 5.24797C18.1877 5.30825 18.0554 5.39663 17.9439 5.50805L12.2929 11.1601L6.64086 5.50805C6.41322 5.29543 6.11187 5.17957 5.80042 5.18492C5.48897 5.19028 5.19178 5.31644 4.97159 5.53676C4.75139 5.75709 4.62541 6.05435 4.62024 6.3658C4.61506 6.67725 4.7311 6.97853 4.94386 7.20605L10.5959 12.8571L4.94386 18.5081C4.77682 18.6762 4.66324 18.8901 4.61741 19.1227C4.57158 19.3552 4.59554 19.5962 4.68628 19.8152C4.77702 20.0342 4.93049 20.2214 5.12738 20.3534C5.32428 20.4855 5.55581 20.5563 5.79286 20.5571C6.09986 20.5571 6.40686 20.4401 6.64086 20.2061L12.2929 14.5541L17.9439 20.2061C18.0552 20.3177 18.1874 20.4063 18.333 20.4668C18.4786 20.5272 18.6347 20.5583 18.7924 20.5583C18.95 20.5583 19.1061 20.5272 19.2517 20.4668C19.3973 20.4063 19.5296 20.3177 19.6409 20.2061C19.7524 20.0946 19.8409 19.9623 19.9013 19.8166C19.9617 19.6709 19.9928 19.5148 19.9928 19.3571C19.9928 19.1994 19.9617 19.0432 19.9013 18.8975C19.8409 18.7518 19.7524 18.6195 19.6409 18.5081L13.9899 12.8571Z" fill="#FF3049"/>
</svg>
