<svg width="15" height="15" viewBox="0 0 15 15" fill="none" xmlns="http://www.w3.org/2000/svg">
<g clip-path="url(#clip0_87_4649)">
<path fill-rule="evenodd" clip-rule="evenodd" d="M7.01921 5.61768C6.83355 5.61768 6.65551 5.54393 6.52423 5.41266C6.39296 5.28138 6.31921 5.10334 6.31921 4.91768C6.31921 4.73203 6.39296 4.55399 6.52423 4.42271C6.65551 4.29143 6.83355 4.21768 7.01921 4.21768C7.20486 4.21768 7.38291 4.29143 7.51418 4.42271C7.64546 4.55399 7.71921 4.73203 7.71921 4.91768C7.71921 5.10334 7.64546 5.28138 7.51418 5.41266C7.38291 5.54393 7.20486 5.61768 7.01921 5.61768ZM7.60254 9.95477C7.60254 10.1095 7.54108 10.2578 7.43168 10.3672C7.32229 10.4766 7.17392 10.5381 7.01921 10.5381C6.8645 10.5381 6.71612 10.4766 6.60673 10.3672C6.49733 10.2578 6.43587 10.1095 6.43587 9.95477V7.0381C6.43587 6.88339 6.49733 6.73502 6.60673 6.62562C6.71612 6.51623 6.8645 6.45477 7.01921 6.45477C7.17392 6.45477 7.32229 6.51623 7.43168 6.62562C7.54108 6.73502 7.60254 6.88339 7.60254 7.0381V9.95477ZM7.01921 0.834351C3.47546 0.834351 0.602539 3.70727 0.602539 7.25102C0.602539 10.7948 3.47546 13.6677 7.01921 13.6677C10.563 13.6677 13.4359 10.7948 13.4359 7.25102C13.4359 3.70727 10.563 0.834351 7.01921 0.834351Z" fill="#119BFF"/>
</g>
<defs>
<clipPath id="clip0_87_4649">
<rect width="14" height="14" fill="white" transform="translate(0.0195312 0.250977)"/>
</clipPath>
</defs>
</svg>
