<svg width="24" height="25" viewBox="0 0 24 25" fill="none" xmlns="http://www.w3.org/2000/svg">
<g id="navigate_next_FILL0_wght400_GRAD0_opsz24 1">
<path id="Vector" d="M12.6 12.5421L8.70005 8.6421C8.51672 8.45877 8.42505 8.22544 8.42505 7.9421C8.42505 7.65877 8.51672 7.42544 8.70005 7.2421C8.88338 7.05877 9.11672 6.9671 9.40005 6.9671C9.68338 6.9671 9.91672 7.05877 10.1 7.2421L14.7 11.8421C14.8 11.9421 14.8709 12.0504 14.9125 12.1671C14.9542 12.2838 14.975 12.4088 14.975 12.5421C14.975 12.6754 14.9542 12.8004 14.9125 12.9171C14.8709 13.0338 14.8 13.1421 14.7 13.2421L10.1 17.8421C9.91672 18.0254 9.68338 18.1171 9.40005 18.1171C9.11672 18.1171 8.88338 18.0254 8.70005 17.8421C8.51672 17.6588 8.42505 17.4254 8.42505 17.1421C8.42505 16.8588 8.51672 16.6254 8.70005 16.4421L12.6 12.5421Z" fill="#9FA8B3"/>
</g>
</svg>
