<svg width="19" height="19" viewBox="0 0 19 19" fill="none" xmlns="http://www.w3.org/2000/svg">
<g id="icon-search-mono">
<path id="Vector" d="M17.212 15.4159L13.7568 11.9606C14.5705 10.8821 15.0588 9.54561 15.0588 8.09361C15.0588 4.54161 12.1683 1.65186 8.61704 1.65186C5.06504 1.65261 2.17529 4.54236 2.17529 8.09436C2.17529 11.6456 5.06504 14.5361 8.61704 14.5361C10.0683 14.5361 11.4055 14.0479 12.484 13.2341L15.9393 16.6894C16.1148 16.8649 16.345 16.9526 16.5753 16.9526C16.8055 16.9526 17.0358 16.8649 17.212 16.6886C17.563 16.3376 17.563 15.7676 17.212 15.4159ZM3.97529 8.09436C3.97529 5.53461 6.05729 3.45261 8.61704 3.45261C11.176 3.45261 13.258 5.53461 13.258 8.09361C13.258 10.6526 11.176 12.7346 8.61704 12.7346C6.05729 12.7354 3.97529 10.6534 3.97529 8.09436Z" fill="#D0D9E3"/>
</g>
</svg>
