<svg width="11" height="11" viewBox="0 0 11 11" fill="none" xmlns="http://www.w3.org/2000/svg">
<g id="user (4) 1" clip-path="url(#clip0_22_10328)">
<path id="Vector" d="M4.71761 4.98047H6.38428C6.93682 4.98047 7.46674 5.19997 7.8574 5.59064C8.24811 5.98134 8.46761 6.51126 8.46761 7.0638V9.5638C8.46761 9.7848 8.37982 9.99676 8.22353 10.1531C8.06724 10.3093 7.85528 10.3971 7.63428 10.3971H3.46761C3.2466 10.3971 3.03464 10.3093 2.87836 10.1531C2.72207 9.99676 2.63428 9.7848 2.63428 9.5638V7.0638C2.63428 6.51126 2.85377 5.98134 3.24447 5.59064C3.63517 5.19997 4.16508 4.98047 4.71761 4.98047Z" fill="#8E99A6"/>
<path id="Vector_2" d="M5.55094 4.5638C6.4714 4.5638 7.21761 3.81761 7.21761 2.89714C7.21761 1.97666 6.4714 1.23047 5.55094 1.23047C4.63047 1.23047 3.88428 1.97666 3.88428 2.89714C3.88428 3.81761 4.63047 4.5638 5.55094 4.5638Z" fill="#8E99A6"/>
</g>
<defs>
<clipPath id="clip0_22_10328">
<rect width="10" height="10" fill="white" transform="translate(0.550781 0.813477)"/>
</clipPath>
</defs>
</svg>
